<?xml version="1.0" standalone="no"?><!DOCTYPE svg PUBLIC "-//W3C//DTD SVG 1.1//EN" "http://www.w3.org/Graphics/SVG/1.1/DTD/svg11.dtd"><svg t="1737904186370" class="icon" viewBox="0 0 1024 1024" version="1.1" xmlns="http://www.w3.org/2000/svg" p-id="8140" xmlns:xlink="http://www.w3.org/1999/xlink" width="200" height="200"><path d="M507.36 64L86.624 265.408l420.736 252.8 430.016-235.712L507.36 64z" fill="#AFD4E5" p-id="8141"></path><path d="M507.392 960L86.624 661.696V265.408l420.736 252.8L507.392 960z" fill="#6699CC" p-id="8142"></path><path d="M937.376 687.52L507.392 960l-0.032-441.792 430.016-235.712v405.024z" fill="#7DA7D3" p-id="8143"></path><path d="M748.608 807.136l-11.296 7.168-7.232-418.176 12.448-6.816 6.08 417.824z" fill="#386A9D" p-id="8144"></path><path d="M372.192 222.4a310.4 310.4 0 0 1 199.648-52.544 290.784 290.784 0 0 1 56 13.056 330.72 330.72 0 0 1 116.608 71.808 108.608 108.608 0 0 1 19.776 20.672c-0.928 4.288-6.016 5.696-9.184 8.032-19.456 10.4-38.4 21.632-58.176 31.616a202.272 202.272 0 0 1-36.32 18.176 69.984 69.984 0 0 0 4.672-45.76 104.032 104.032 0 0 0-63.2-55.648 197.536 197.536 0 0 0-124.8 0 117.792 117.792 0 0 0-65.44 50.56 52.192 52.192 0 0 0 9.792 63.04 164.032 164.032 0 0 0 99.2 32.288 246.912 246.912 0 0 0 53.184-2.24 11.136 11.136 0 0 1 10.464 2.592c-33.568 14.464-65.792 32-99.2 47.104a104.192 104.192 0 0 1-49.984-6.4 177.792 177.792 0 0 1-103.744-70.4 82.304 82.304 0 0 1-8.768-71.168 108.416 108.416 0 0 1 49.472-54.784z" fill="#6699CC" p-id="8145"></path></svg>