<?xml version="1.0" standalone="no"?><!DOCTYPE svg PUBLIC "-//W3C//DTD SVG 1.1//EN" "http://www.w3.org/Graphics/SVG/1.1/DTD/svg11.dtd"><svg t="1737968256162" class="icon" viewBox="0 0 1024 1024" version="1.1" xmlns="http://www.w3.org/2000/svg" p-id="4226" xmlns:xlink="http://www.w3.org/1999/xlink" width="200" height="200"><path d="M512 42.666667c259.2 0 469.333333 210.133333 469.333333 469.333333s-210.133333 469.333333-469.333333 469.333333S42.666667 771.2 42.666667 512 252.8 42.666667 512 42.666667z m0 42.666666C276.352 85.333333 85.333333 276.352 85.333333 512s191.018667 426.666667 426.666667 426.666667 426.666667-191.018667 426.666667-426.666667S747.648 85.333333 512 85.333333z m-23.893333 151.594667s-59.178667 34.645333-59.178667 87.04c0 15.232 2.133333 25.728 5.461333 32.725333 4.437333 9.216 10.922667 12.373333 17.237334 12.373334a24.618667 24.618667 0 0 0 14.08-4.736v283.776c1.493333 3.584 3.456 6.954667 5.845333 10.026666a41.728 41.728 0 0 0 34.176 17.450667c29.568 0 68.010667-33.92 68.010667-33.92V411.861333c0-23.338667-17.578667-51.541333-35.2-61.226666 0 0 37.589333-2.474667 56.064 12.074666 0 0 62.378667-75.008 176.853333-97.578666 0 0-61.312 72.704-80.469333 108.8-2.432 0.128-3.413333 34.389333-3.541334 78.592v32.512l0.128 25.429333c0.597333 65.792 2.133333 131.541333 3.029334 136.106667 0 0 6.528 9.728 23.210666 9.856 18.773333 0.085333 50.389333-12.202667 100.053334-64.725334 0 0-53.632 122.581333-164.906667 188.672l-60.842667-51.84-1.578666-1.365333-66.389334 70.954667s-151.253333-12.885333-214.528-104.832c0 0 10.026667 3.797333 20.864 3.968 12.629333 0.256 26.368-4.394667 26.368-25.728v-216.106667a23.210667 23.210667 0 0 0-24.533333-23.338667c-14.890667 0-36.693333 10.112-65.92 40.277334a482.986667 482.986667 0 0 0-81.408 112.128l-2.858667 5.76c-2.005333 4.053333-2.944 6.272-2.944 6.272s-17.621333-87.893333 75.221334-194.304c92.842667-106.453333 162.474667-145.066667 237.696-165.290667z" fill="#313E55" p-id="4227"></path></svg>