<?xml version="1.0" standalone="no"?><!DOCTYPE svg PUBLIC "-//W3C//DTD SVG 1.1//EN" "http://www.w3.org/Graphics/SVG/1.1/DTD/svg11.dtd"><svg t="1722477048207" class="icon" viewBox="0 0 1024 1024" version="1.1" xmlns="http://www.w3.org/2000/svg" p-id="1713" xmlns:xlink="http://www.w3.org/1999/xlink" width="200" height="200"><path d="M30.3677 370.3357l200.128512 0L230.496212 227.808256 67.135488 227.808256l0-69.439488 163.359744 0L230.495232 19.504128l73.535488 0 0 138.863616 151.103488 0 0 69.439488L304.031744 227.807232l0 142.528512 163.439616 0 0 73.535488L332.703744 443.871232l0 155.840512L475.648 599.711744l0 69.439488L332.703744 669.151232l0 187.855872c48.9923 10.8964 107.5364 17.7121 175.616 20.4319 57.1679 2.7197 144.2877 2.7197 261.376 0 127.9519 0 206.9115-1.3599 236.8635-4.0796-2.7197 8.1603-5.4395 19.0403-8.1603 32.6717-5.4559 16.3205-10.8964 31.2955-16.3359 44.9116-108.9116 0-277.7119 0-506.4161 0-157.9356-8.1603-265.4884-63.9836-322.6563-167.4404-21.7917 78.9596-49.0076 145.6476-81.6804 200.1121-13.6161-29.952-28.5921-59.8876-44.928-89.8396 51.7284-89.856 80.3205-219.3439 85.76-388.4636l73.5201 4.096c-2.7197 65.536-8.1756 124.2399-16.3359 176.0799 27.2159 57.1843 57.1679 99.3761 89.8396 126.6084L259.166044 443.872256 30.367744 443.872256 30.367744 370.335744zM479.8556 129.5043 479.8556 64.159744 953.6 64.159744c0 10.8964-1.3599 31.3119-4.0796 61.2639-2.7361 51.7284-5.4559 93.9203-8.1756 126.592-2.7197 103.4721-46.2879 153.8396-130.688 151.1199-49.0076 2.7197-87.1199 4.0796-114.3521 4.0796-2.7197-35.3915-6.8157-61.2475-12.2563-77.5997 5.4395 0 16.3359 0 32.6717 0 35.3915 2.7197 62.6237 4.0796 81.6804 4.0796 49.0076 0 73.5201-28.5757 73.5201-85.76 2.7197-48.9923 4.0796-88.4797 4.0796-118.4317L688.144384 129.503344c0 130.688-54.4645 235.52-163.3597 314.4643-13.6315-21.7764-29.9684-43.5517-49.0076-65.3435 95.2801-54.4481 142.9279-137.4884 142.9279-249.1197L479.855616 129.504444zM528.4803 476.8317l412.479488 0 0 322.367488L528.480256 799.199188 528.480256 476.831744zM597.9197 542.1763l0 187.584512 273.600512 0L871.520212 542.176256 597.919744 542.176256z" p-id="1714"></path></svg>